<svg id="visual" viewBox="0 0 900 600" width="900" height="600" xmlns="http://www.w3.org/2000/svg" xmlns:xlink="http://www.w3.org/1999/xlink" version="1.1"><rect x="0" y="0" width="900" height="600" fill="#F7FCFD"></rect><defs><linearGradient id="grad1_0" x1="33.3%" y1="0%" x2="100%" y2="100%"><stop offset="20%" stop-color="#f7fcfd" stop-opacity="1"></stop><stop offset="80%" stop-color="#f7fcfd" stop-opacity="1"></stop></linearGradient></defs><defs><linearGradient id="grad2_0" x1="0%" y1="0%" x2="66.7%" y2="100%"><stop offset="20%" stop-color="#f7fcfd" stop-opacity="1"></stop><stop offset="80%" stop-color="#f7fcfd" stop-opacity="1"></stop></linearGradient></defs><g transform="translate(900, 0)"><path d="M0 243.4C-24.7 238.6 -49.4 233.9 -73.5 226.4C-97.7 218.8 -121.3 208.5 -140.5 193.4C-159.7 178.2 -174.4 158.1 -190.1 138.1C-205.8 118.1 -222.4 98.2 -231.5 75.2C-240.5 52.2 -241.9 26.1 -243.4 0L0 0Z" fill="#D8F2F5"></path></g><g transform="translate(0, 600)"><path d="M0 -243.4C26.4 -242.3 52.7 -241.3 75.2 -231.5C97.7 -221.6 116.4 -203 135.8 -186.9C155.2 -170.8 175.4 -157.1 190.9 -138.7C206.5 -120.3 217.4 -97.2 225.4 -73.2C233.4 -49.3 238.4 -24.7 243.4 0L0 0Z" fill="#D8F2F5"></path></g></svg>