<svg
  version="1.1"
  id="Layer_1"
  xmlns="http://www.w3.org/2000/svg"
  xmlns:xlink="http://www.w3.org/1999/xlink"
  x="0px"
  y="0px"
  width="100%"
  viewBox="0 0 480 480"
  enable-background="new 0 0 480 480"
  xml:space="preserve"
>
  <path fill="currentColor" opacity="1.000000" stroke="none"
  	d="
  M146.827133,270.297302
  	C151.251007,259.693726 160.986099,254.072372 171.251694,255.864075
  	C181.226868,257.605103 189.003616,266.402008 189.329453,276.313232
  	C189.689468,287.264709 183.141495,296.253479 172.566010,298.754150
  	C164.710129,300.611664 157.607407,298.690277 151.973236,292.817322
  	C145.964951,286.554443 144.154419,279.091583 146.827133,270.297302
  z"/>
  <path fill="currentColor" opacity="1.000000" stroke="none"
  	d="
  M210.560562,189.116791
  	C195.449890,185.836929 188.452835,169.945557 195.234314,157.017227
  	C199.918915,148.086395 210.864670,143.576157 220.801575,146.622971
  	C231.221268,149.817810 237.613449,159.687531 236.246521,170.470428
  	C234.971359,180.529190 226.022018,188.861557 215.975159,189.291870
  	C214.316223,189.362900 212.648605,189.231308 210.560562,189.116791
  z"/>
  <path fill="currentColor" opacity="1.000000" stroke="none"
  	d="
  M261.495605,182.470642
  	C253.735611,172.315460 253.778610,160.626297 261.351318,152.544403
  	C268.468903,144.948242 280.461304,143.430893 289.268311,149.012253
  	C299.637604,155.583679 302.527344,169.492371 295.644989,179.704071
  	C288.676025,190.044296 274.606537,192.460526 264.366882,185.049622
  	C263.427887,184.370056 262.618500,183.511444 261.495605,182.470642
  z"/>
  <path fill="currentColor" opacity="1.000000" stroke="none"
  	d="
  M189.210754,211.420486
  	C189.541489,223.602570 184.637344,231.569870 174.958237,235.084763
  	C166.203766,238.263901 156.518570,235.575836 150.641098,228.335678
  	C144.900162,221.263702 143.933731,212.077652 148.291245,204.042984
  	C152.823746,195.685654 160.172211,192.252808 169.422760,192.734375
  	C177.888916,193.175110 185.491638,199.310074 188.244522,207.618851
  	C188.609772,208.721268 188.861511,209.861328 189.210754,211.420486
  z"/>
  <path fill="currentColor" opacity="1.000000" stroke="none"
  	d="
  M256.829285,317.325867
  	C261.835022,306.344421 270.998138,301.042267 281.268280,302.870087
  	C291.118500,304.623138 298.809937,313.149628 299.324219,322.845428
  	C299.824707,332.282257 295.850159,339.354370 287.695526,343.863922
  	C280.066620,348.082764 270.139130,347.050507 263.779083,341.560242
  	C256.381104,335.173920 253.989105,327.167572 256.829285,317.325867
  z"/>
  <path fill="currentColor" opacity="1.000000" stroke="none"
  	d="
  M204.396454,343.940735
  	C195.420990,338.638947 191.430893,330.915497 192.918686,321.135376
  	C194.299606,312.057922 199.690323,305.657166 208.908401,303.376312
  	C217.953003,301.138397 225.682419,303.700104 231.653076,310.893860
  	C237.723770,318.208130 237.942520,329.782928 232.353546,337.349609
  	C225.996841,345.955658 215.720734,348.476196 204.396454,343.940735
  z"/>
  <path fill="currentColor" opacity="1.000000" stroke="none"
  	d="
  M308.942627,198.944153
  	C316.605652,192.392838 324.848663,190.610611 333.790741,194.755066
  	C341.722290,198.431168 345.954224,204.959412 346.294647,213.703262
  	C346.669037,223.319031 341.188599,231.545853 332.558228,234.878952
  	C324.070221,238.157089 314.273529,235.866028 308.309357,229.208130
  	C302.050140,222.220871 300.845306,212.542404 305.304138,204.118500
  	C306.228882,202.371384 307.540527,200.829056 308.942627,198.944153
  z"/>
  <path fill="currentColor" opacity="1.000000" stroke="none"
  	d="
  M307.080750,264.223206
  	C314.863770,255.894165 323.407593,253.598129 332.510529,257.162323
  	C340.872406,260.436401 346.274811,268.301483 346.336487,277.290924
  	C346.400085,286.559418 341.047852,294.521362 332.466278,297.924072
  	C324.237854,301.186768 314.893280,299.077484 308.588440,292.534363
  	C302.536743,286.253937 300.911346,276.512726 304.621460,268.401459
  	C305.240570,267.047974 306.102295,265.805450 307.080750,264.223206
  z"/>
  <path fill="currentColor" opacity="1.000000" stroke="none"
  	d="
  M349.156708,337.438995
  	C346.969330,344.530304 342.634796,348.706451 335.506348,349.258881
  	C329.046722,349.759460 324.204620,346.857574 321.210388,341.164673
  	C318.398682,335.818848 319.304077,328.529327 323.389679,324.380890
  	C327.858795,319.843109 333.323456,318.477509 339.429291,320.494141
  	C345.619324,322.538605 349.065247,327.345612 349.322296,334.031189
  	C349.360565,335.026672 349.267883,336.027130 349.156708,337.438995
  z"/>
  <path fill="currentColor" opacity="1.000000" stroke="none"
  	d="
  M235.532349,362.457214
  	C242.482635,357.373413 250.359940,357.521606 255.849014,362.575409
  	C260.905792,367.231262 261.824371,375.815613 257.899414,381.737701
  	C253.909866,387.757263 246.226868,390.014954 239.439331,387.162323
  	C229.866058,383.138885 227.795090,371.045258 235.532349,362.457214
  z"/>
  <path fill="currentColor" opacity="1.000000" stroke="none"
  	d="
  M157.905212,319.682709
  	C167.509521,321.068848 172.668427,326.861115 172.318436,335.390289
  	C172.020416,342.652893 166.321808,348.648254 159.109024,349.287598
  	C150.832184,350.021271 143.504440,344.108795 142.705750,336.052368
  	C141.817612,327.093597 147.788147,320.474487 157.905212,319.682709
  z"/>
  <path fill="currentColor" opacity="1.000000" stroke="none"
  	d="
  M166.849075,169.002151
  	C160.748260,173.408798 154.690369,173.556671 148.848785,169.666473
  	C143.615036,166.181091 141.898224,160.779861 142.883835,154.760696
  	C143.857773,148.813004 147.637650,144.964844 153.363724,143.198914
  	C159.447662,141.322647 166.733414,144.076508 170.007294,149.309753
  	C174.018585,155.721741 172.993256,162.685394 166.849075,169.002151
  z"/>
  <path fill="currentColor" opacity="1.000000" stroke="none"
  	d="
  M245.900116,133.314148
  	C236.857254,132.877594 230.671692,126.648148 230.677277,118.425690
  	C230.682663,110.485138 236.769684,104.048203 244.619919,103.681557
  	C252.721985,103.303154 259.735962,109.339081 260.313904,117.187111
  	C260.948761,125.808235 255.532471,132.055069 245.900116,133.314148
  z"/>
  <path fill="currentColor" opacity="1.000000" stroke="none"
  	d="
  M332.377411,172.237366
  	C322.142334,169.174026 317.485840,161.131485 320.547119,152.496628
  	C323.439667,144.337738 332.399933,140.449799 340.486816,143.844635
  	C346.902649,146.537979 350.641388,153.823242 349.105835,160.639679
  	C347.448090,167.998627 341.435577,172.290314 332.377411,172.237366
  z"/>
  <path fill="currentColor" opacity="1.000000" stroke="none"
  	d="
  M365.316925,233.008209
  	C375.084656,228.481888 383.915009,231.388687 387.284088,239.915497
  	C390.475311,247.992111 386.338562,256.807587 378.040863,259.612762
  	C371.518738,261.817719 364.316254,259.147888 360.733917,253.197266
  	C356.769501,246.611984 358.327881,239.314377 365.316925,233.008209
  z"/>
  <path fill="currentColor" opacity="1.000000" stroke="none"
  	d="
  M116.370331,230.758347
  	C127.063591,230.728317 133.724167,237.012009 133.327194,246.309128
  	C132.972534,254.615280 125.639053,260.957977 117.159134,260.292816
  	C110.332260,259.757324 104.388863,253.918121 103.706383,247.075912
  	C102.923019,239.222443 107.260956,233.455521 116.370331,230.758347
  z"/>
  <path fill="currentColor" opacity="1.000000" stroke="none"
  	d="
  M385.081512,292.341309
  	C392.004517,296.235474 394.217621,302.473236 391.073853,308.344818
  	C388.098145,313.902557 381.248169,315.983337 375.587708,313.048981
  	C370.172241,310.241608 368.088654,303.193359 370.996735,297.518524
  	C373.380310,292.867126 377.840057,291.128021 385.081512,292.341309
  z"/>
  <path fill="currentColor" opacity="1.000000" stroke="none"
  	d="
  M296.785706,390.570007
  	C291.213409,385.193237 290.201385,380.043243 293.409943,374.770782
  	C295.974579,370.556427 301.581177,368.579712 306.512939,370.150970
  	C312.505554,372.060242 315.845062,378.603882 313.861206,384.549622
  	C311.573212,391.406891 304.899933,393.899567 296.785706,390.570007
  z"/>
  <path fill="currentColor" opacity="1.000000" stroke="none"
  	d="
  M188.995911,99.680756
  	C196.534302,100.722618 200.261520,104.571579 200.318054,110.939407
  	C200.366058,116.346832 196.685211,121.005623 191.479996,122.125641
  	C185.814240,123.344734 180.356003,120.325249 178.298843,114.833809
  	C175.606995,107.648109 180.185577,100.896286 188.995911,99.680756
  z"/>
  <path fill="currentColor" opacity="1.000000" stroke="none"
  	d="
  M100.069901,192.265442
  	C99.347351,184.475357 101.690170,180.088501 107.190041,178.291550
  	C112.478157,176.563751 118.004532,178.470139 120.689926,182.948502
  	C124.043343,188.540894 122.179993,195.743713 116.550491,198.949554
  	C110.512390,202.388062 104.046799,199.899628 100.069901,192.265442
  z"/>
  <path fill="currentColor" opacity="1.000000" stroke="none"
  	d="
  M101.912537,309.878601
  	C98.697006,303.566589 99.125755,298.585388 102.953644,294.936188
  	C106.642715,291.419312 112.084938,290.554291 116.286026,292.988312
  	C120.527512,295.445709 122.728493,299.127380 122.288574,304.133972
  	C121.885139,308.725220 119.361519,311.917664 115.179123,313.516724
  	C110.183899,315.426575 105.732468,314.260803 101.912537,309.878601
  z"/>
  <path fill="currentColor" opacity="1.000000" stroke="none"
  	d="
  M178.385193,376.960693
  	C181.895248,371.034241 185.828369,368.911194 191.116776,369.807007
  	C195.712204,370.585480 199.595703,374.493958 200.219360,379.138824
  	C200.909073,384.275818 198.954895,388.293274 194.511108,390.868683
  	C190.603088,393.133575 186.548798,393.011658 182.800354,390.388123
  	C178.197479,387.166626 176.715454,382.747131 178.385193,376.960693
  z"/>
  <path fill="currentColor" opacity="1.000000" stroke="none"
  	d="
  M307.757568,100.746201
  	C313.478394,104.691002 315.368408,108.816689 314.071716,113.883812
  	C312.952698,118.256653 308.545563,121.950974 304.046570,122.287476
  	C298.967468,122.667366 294.600159,120.060593 292.559570,115.302444
  	C290.753998,111.092331 291.429291,107.006157 294.338898,103.686035
  	C297.809845,99.725403 302.303864,98.526360 307.757568,100.746201
  z"/>
  <path fill="currentColor" opacity="1.000000" stroke="none"
  	d="
  M376.239075,178.732407
  	C381.893494,176.553574 386.443848,177.736450 389.935608,182.093674
  	C393.035980,185.962463 393.289001,190.350143 390.815918,194.627869
  	C388.350037,198.893250 384.461609,200.884827 379.533844,200.215164
  	C374.613556,199.546524 371.452454,196.503693 370.023895,191.872192
  	C368.485840,186.885651 370.482056,182.747986 376.239075,178.732407
  z"/>
  <path fill="currentColor" opacity="1.000000" stroke="none"
  	d="
  M252.493073,419.500793
  	C249.296402,421.900330 246.315170,422.047272 243.666916,419.569916
  	C241.392639,417.442413 240.968933,414.680664 242.513596,411.902283
  	C243.954163,409.311096 246.357651,408.351685 249.224396,408.809906
  	C253.912674,409.559265 255.405273,414.004639 252.493073,419.500793
  z"/>
  <path fill="currentColor" opacity="1.000000" stroke="none"
  	d="
  M416.641327,241.885529
  	C420.277130,243.253464 421.706390,245.673035 421.201080,249.064697
  	C420.793060,251.803452 419.011475,253.520187 416.355774,254.156006
  	C412.716705,255.027267 409.239319,252.508698 408.778259,248.798813
  	C408.250061,244.548523 410.874481,242.086472 416.641327,241.885529
  z"/>
  <path fill="currentColor" opacity="1.000000" stroke="none"
  	d="
  M132.967224,367.790527
  	C129.915161,370.919586 126.806648,371.182434 123.811462,368.703217
  	C121.550598,366.831787 121.047890,364.149231 122.253006,361.441193
  	C123.566322,358.490021 126.067894,357.320404 129.194168,357.831451
  	C133.601364,358.551849 135.116913,362.295074 132.967224,367.790527
  z"/>
  <path fill="currentColor" opacity="1.000000" stroke="none"
  	d="
  M127.970810,121.725281
  	C134.015747,123.612183 135.922180,127.240425 133.343155,131.253723
  	C131.592117,133.978516 128.979919,134.938293 125.980759,134.010635
  	C123.172470,133.142029 121.664734,130.978668 121.722702,127.944977
  	C121.795357,124.142387 123.931068,122.219604 127.970810,121.725281
  z"/>
  <path fill="currentColor" opacity="1.000000" stroke="none"
  	d="
  M248.826538,83.219543
  	C243.307541,82.228996 240.737244,79.214706 241.941177,75.335098
  	C243.106781,71.579063 245.925934,70.104080 249.686996,70.960213
  	C252.319824,71.559540 254.022339,73.404106 254.241074,76.204979
  	C254.527603,79.874092 252.695938,82.143051 248.826538,83.219543
  z"/>
  <path fill="currentColor" opacity="1.000000" stroke="none"
  	d="
  M358.582092,367.101135
  	C357.082977,363.605652 357.492340,360.830475 360.373352,358.807373
  	C362.631256,357.221741 365.070190,357.291443 367.414124,358.708557
  	C369.836090,360.172852 370.666687,362.435486 370.200287,365.129211
  	C369.764130,367.648346 368.140350,369.338226 365.745148,370.022217
  	C362.903442,370.833679 360.495178,369.984406 358.582092,367.101135
  z"/>
  <path fill="currentColor" opacity="1.000000" stroke="none"
  	d="
  M357.911560,129.601135
  	C357.379456,125.310822 358.975952,122.608917 362.830475,121.848839
  	C366.135345,121.197128 368.807800,122.644371 369.953979,125.887146
  	C371.005798,128.862885 370.068176,131.470352 367.396759,133.277588
  	C364.116913,135.496414 360.971039,134.374954 357.911560,129.601135
  z"/>
  <path fill="currentColor" opacity="1.000000" stroke="none"
  	d="
  M80.817230,252.999084
  	C75.611732,254.965698 72.201447,253.944824 71.062233,250.164246
  	C70.030258,246.739548 70.973099,243.817642 74.415253,242.275925
  	C77.346451,240.963013 80.078102,241.691162 81.973129,244.240616
  	C84.170280,247.196518 83.779823,250.141983 80.817230,252.999084
  z"/>
</svg>
