<svg
  version="1.1"
  id="Layer_1"
  xmlns="http://www.w3.org/2000/svg"
  xmlns:xlink="http://www.w3.org/1999/xlink"
  x="0px"
  y="0px"
  width="100%"
  viewBox="0 0 1024 1024"
  enable-background="new 0 0 1024 1024"
  xml:space="preserve"
>
  <path fill="currentColor" opacity="1.000000" stroke="none"
  	d="
  M429.256287,561.227173
  	C454.622894,541.639832 482.452393,528.409790 513.887024,523.175415
  	C530.124268,520.471680 546.312012,520.085205 562.481689,523.643066
  	C568.332703,524.930481 573.465881,527.382812 575.021423,533.651062
  	C576.617188,540.081848 574.888184,545.722900 569.708496,550.315796
  	C561.456726,557.632812 551.869202,563.172058 543.508728,570.317322
  	C513.089172,596.315369 493.392822,629.060913 482.089539,667.242920
  	C476.830994,685.006042 475.322998,703.530640 470.283356,721.317139
  	C461.159454,753.518433 443.516724,779.421021 414.849457,797.399597
  	C403.880005,804.279053 392.010651,808.169861 379.176239,809.174011
  	C366.929321,810.132202 358.622070,804.958374 354.082794,792.917908
  	C348.306366,777.596008 345.126099,761.667297 343.546967,745.341370
  	C340.721375,716.128845 345.149719,687.954895 354.837158,660.460632
  	C365.966370,628.874573 384.251038,601.990723 408.617950,579.150635
  	C415.182159,572.997742 421.809662,566.912537 429.256287,561.227173
  z"/>
  <path fill="currentColor" opacity="1.000000" stroke="none"
  	d="
  M511.177368,703.314331
  	C515.394043,686.985413 516.916565,670.515381 521.621338,654.687317
  	C532.130371,619.332336 553.183777,592.714539 586.161865,575.823059
  	C596.216248,570.673218 607.054688,569.015015 618.168213,569.838867
  	C627.503540,570.530884 633.084717,576.511597 636.446228,584.804443
  	C640.844543,595.655090 643.283691,607.042358 645.290466,618.514343
  	C655.893372,679.126343 638.665100,732.656982 600.946289,779.418152
  	C571.275818,816.201599 534.086731,843.391479 486.646973,853.709167
  	C469.498810,857.438660 452.176453,859.489685 434.648468,856.322815
  	C430.368927,855.549561 426.269989,854.145813 422.458893,852.014099
  	C414.606171,847.621704 412.831909,841.300354 417.549225,833.616150
  	C421.468597,827.231628 427.267822,822.634033 433.422241,818.624084
  	C454.760712,804.720581 471.437439,786.341309 485.100311,765.090210
  	C497.280243,746.145630 505.618164,725.528381 511.177368,703.314331
  z"/>
  <path fill="currentColor" opacity="1.000000" stroke="none"
  	d="
  M631.557983,313.421814
  	C644.336609,321.929260 658.298889,327.735809 670.373352,336.746887
  	C692.073792,352.941650 706.289978,373.885803 711.783386,400.580780
  	C713.883240,410.785339 713.123718,420.778290 710.025330,430.613434
  	C707.495422,438.644165 700.900330,443.089966 691.691711,443.338440
  	C658.178162,444.242767 627.536682,435.113953 599.778259,416.501251
  	C555.835632,387.036591 531.923157,344.746246 522.711060,293.593567
  	C517.753357,266.064636 520.823425,239.241394 533.448914,213.903992
  	C536.267456,208.247681 539.517151,202.650146 546.890015,202.976822
  	C554.839172,203.329041 558.153992,209.225067 560.257690,215.909256
  	C564.406311,229.090408 568.629272,242.194626 575.446655,254.360031
  	C589.100281,278.724548 608.024231,297.989716 631.557983,313.421814
  z"/>
  <path fill="currentColor" opacity="1.000000" stroke="none"
  	d="
  M640.996155,285.114258
  	C621.824280,274.227997 605.734375,260.616699 594.823364,241.513565
  	C587.524414,228.734482 583.295288,214.902039 582.021606,200.372620
  	C581.340637,192.604568 583.188232,184.779404 586.682312,177.638718
  	C589.495117,171.890366 594.596863,169.199982 600.775635,168.699310
  	C620.147888,167.129471 638.885498,170.684265 657.231567,176.427567
  	C690.203369,186.749496 715.842224,207.282166 736.648315,234.352112
  	C757.741272,261.795319 770.358154,292.819672 773.942383,327.138641
  	C776.084412,347.648895 773.744141,368.017242 766.526245,387.582489
  	C764.080627,394.211884 760.896851,400.404449 755.602783,405.254272
  	C749.934631,410.446716 743.996704,409.872681 739.333679,403.767426
  	C735.827271,399.176605 733.956787,393.817871 732.417419,388.365540
  	C720.597534,346.501099 694.013184,316.418579 657.435303,294.324005
  	C652.166626,291.141510 646.694580,288.295746 640.996155,285.114258
  z"/>
  <path fill="currentColor" opacity="1.000000" stroke="none"
  	d="
  M281.708282,307.752563
  	C294.213287,292.530914 308.733276,280.632355 327.306091,274.301605
  	C329.345001,273.606659 331.445251,272.989746 333.567322,272.658417
  	C342.370026,271.283936 347.579407,277.731506 344.489136,286.156372
  	C343.746521,288.180939 342.844086,290.178101 341.765472,292.043518
  	C322.175720,325.923889 320.990662,361.399445 332.007202,398.165131
  	C339.392853,422.813507 338.527039,446.824066 324.489807,469.336365
  	C320.543518,475.665222 315.530060,480.885895 309.174683,484.836121
  	C300.349060,490.321838 294.074585,489.780090 286.793732,482.369781
  	C274.727814,470.089325 265.468689,455.968353 259.585815,439.722656
  	C246.979965,404.911224 249.328491,370.794891 264.209930,337.197205
  	C268.827057,326.773132 274.547455,317.055054 281.708282,307.752563
  z"/>
  <path fill="currentColor" opacity="1.000000" stroke="none"
  	d="
  M397.392090,292.624573
  	C419.118225,317.528076 430.181000,346.135773 429.128967,378.881073
  	C428.022308,413.326508 416.617065,444.144135 393.444244,469.913635
  	C381.990387,482.651031 368.365448,492.875488 351.411591,497.510986
  	C346.618896,498.821350 341.057129,500.126282 337.360229,495.695709
  	C333.562286,491.144012 335.506317,485.681488 337.947479,481.109863
  	C343.997833,469.779053 349.772736,458.415466 352.669647,445.754608
  	C358.116180,421.950409 356.368378,398.528290 349.429108,375.330902
  	C343.983093,357.125397 342.009521,338.737793 347.926514,320.345825
  	C352.154480,307.203827 358.203552,294.925507 370.457886,287.140167
  	C380.927979,280.488373 386.350342,281.262756 395.097107,290.177948
  	C395.796875,290.891205 396.466248,291.634338 397.392090,292.624573
  z"/>
</svg>
